<!DOCTYPE svg PUBLIC "-//W3C//DTD SVG 1.1//EN" "http://www.w3.org/Graphics/SVG/1.1/DTD/svg11.dtd">
<!-- Uploaded to: SVG Repo, www.svgrepo.com, Transformed by: SVG Repo Mixer Tools -->
<svg width="187px" height="187px" viewBox="-3.84 -3.84 39.68 39.68" xmlns="http://www.w3.org/2000/svg" fill="#000000" transform="rotate(0)" stroke="#000000" stroke-width="0.00032">
<g id="SVGRepo_bgCarrier" stroke-width="0" transform="translate(0,0), scale(1)">
<rect x="-3.84" y="-3.84" width="39.68" height="39.68" rx="19.84" fill="#ffffff" strokewidth="0"/>
</g>
<g id="SVGRepo_tracerCarrier" stroke-linecap="round" stroke-linejoin="round" stroke="#CCCCCC" stroke-width="0.064"/>
<g id="SVGRepo_iconCarrier">
<title>file_type_light_prisma</title>
<path d="M25.21,24.21,12.739,27.928a.525.525,0,0,1-.667-.606L16.528,5.811a.43.43,0,0,1,.809-.094l8.249,17.661A.6.6,0,0,1,25.21,24.21Zm2.139-.878L17.8,2.883h0A1.531,1.531,0,0,0,16.491,2a1.513,1.513,0,0,0-1.4.729L4.736,19.648a1.592,1.592,0,0,0,.018,1.7l5.064,7.909a1.628,1.628,0,0,0,1.83.678l14.7-4.383a1.6,1.6,0,0,0,1-2.218Z" style="fill:#0c344b;fill-rule:evenodd"/>
</g>
</svg>