<svg width="195" height="195" viewBox="0 0 195 195" fill="none" xmlns="http://www.w3.org/2000/svg">
<g clip-path="url(#clip0_28_174)">
<rect x="45.3333" y="41.5" width="103" height="103" fill="#D9D9D9"/>
<path fill-rule="evenodd" clip-rule="evenodd" d="M40.6277 16.5C29.5582 16.5 21.3675 26.1885 21.7341 36.6957C22.0859 46.7903 21.6289 59.8639 18.3374 70.5257C15.0362 81.2184 9.45287 87.9922 0.333252 88.862V98.68C9.45287 99.5498 15.0362 106.324 18.3374 117.017C21.6289 127.678 22.0859 140.752 21.7341 150.847C21.3675 161.353 29.5582 171.042 40.6293 171.042H154.053C165.123 171.042 173.313 161.354 172.946 150.847C172.594 140.752 173.051 127.678 176.342 117.017C179.645 106.324 185.214 99.5498 194.333 98.68V88.862C185.214 87.9922 179.645 81.2184 176.342 70.5257C173.051 59.8655 172.594 46.7903 172.946 36.6957C173.313 26.1901 165.123 16.5 154.053 16.5H40.6277ZM131.859 111.63C131.859 126.099 121.067 134.873 103.158 134.873H72.6722C71.8002 134.873 70.9638 134.526 70.3472 133.91C69.7305 133.293 69.3841 132.457 69.3841 131.585V55.9577C69.3841 55.0855 69.7305 54.2492 70.3472 53.6326C70.9638 53.0159 71.8002 52.6695 72.6722 52.6695H102.984C117.917 52.6695 127.717 60.7583 127.717 73.1776C127.717 81.8942 121.125 89.6986 112.725 91.0647V91.5206C124.159 92.7751 131.859 100.693 131.859 111.63ZM99.8342 63.0929H82.451V87.6455H97.0916C108.409 87.6455 114.65 83.0881 114.65 74.9417C114.65 67.3083 109.284 63.0929 99.8342 63.0929ZM82.451 97.3883V124.446H100.474C112.257 124.446 118.499 119.718 118.499 110.832C118.499 101.944 112.082 97.3867 99.7154 97.3867L82.451 97.3883Z" fill="#563D7C"/>
</g>
<defs>
<clipPath id="clip0_28_174">
<rect width="194" height="194" fill="white" transform="translate(0.333252 0.5)"/>
</clipPath>
</defs>
</svg>
