<svg xmlns="http://www.w3.org/2000/svg" xmlns:xlink="http://www.w3.org/1999/xlink" width="500" zoomAndPan="magnify" viewBox="0 0 375 374.999991" height="500" preserveAspectRatio="xMidYMid meet" version="1.0"><defs><clipPath id="331b41f3bc"><path d="M 187.5 0 C 83.945312 0 0 83.945312 0 187.5 C 0 291.054688 83.945312 375 187.5 375 C 291.054688 375 375 291.054688 375 187.5 C 375 83.945312 291.054688 0 187.5 0 Z M 187.5 0 " clip-rule="nonzero"/></clipPath><clipPath id="a049256b04"><path d="M 37.5 103.832031 L 337.5 103.832031 L 337.5 271.082031 L 37.5 271.082031 Z M 37.5 103.832031 " clip-rule="nonzero"/></clipPath></defs><g clip-path="url(#331b41f3bc)"><rect x="-37.5" width="450" fill="#ffffff" y="-37.499999" height="449.999989" fill-opacity="1"/></g><g clip-path="url(#a049256b04)"><path stroke-linecap="butt" transform="matrix(1.507496, 0, 0, 1.506757, 37.504173, 103.831656)" fill="none" stroke-linejoin="miter" d="M 59.18843 108.000751 C 11.367497 108.000751 3.000454 52.928506 3.000454 17.502142 L 34.380107 5.00116 C 34.183174 35.16477 29.301319 108.000751 59.18843 108.000751 Z M 59.18843 108.000751 C 107.006772 108.000751 111.790161 53.125535 108.501905 17.502142 L 127.524038 17.502142 C 141.775738 17.502142 156.296925 19.952045 167.967772 28.128755 C 208.84424 56.757612 203.786182 98.473353 160.803054 98.473353 C 121.113364 98.473353 74.429976 35.662528 59.18843 108.000751 Z M 59.18843 108.000751 " stroke="#000000" stroke-width="6" stroke-opacity="1" stroke-miterlimit="4"/></g></svg>