<svg width="61" height="24" viewBox="0 0 61 24" fill="none" xmlns="http://www.w3.org/2000/svg">
<path d="M1.5 10.5C0.671569 10.5 -4.72106e-06 11.1716 -5.20653e-06 12C-5.69229e-06 12.8284 0.671567 13.5 1.49999 13.5L1.5 10.5ZM59.7273 13.0607C60.3131 12.4749 60.3131 11.5251 59.7273 10.9394L50.1814 1.39342C49.5956 0.807629 48.6458 0.807628 48.0601 1.39342C47.4743 1.9792 47.4743 2.92895 48.0601 3.51474L56.5453 12L48.0601 20.4853C47.4743 21.0711 47.4743 22.0208 48.06 22.6066C48.6458 23.1924 49.5956 23.1924 50.1814 22.6066L59.7273 13.0607ZM1.49999 13.5L58.6667 13.5L58.6667 10.5L1.5 10.5L1.49999 13.5Z" fill="#53C1DE"/>
</svg>
