<svg width="194" height="194" viewBox="0 0 194 194" fill="none" xmlns="http://www.w3.org/2000/svg">
<rect x="45" y="41" width="103" height="103" fill="#D9D9D9"/>
<path fill-rule="evenodd" clip-rule="evenodd" d="M40.2944 16C29.225 16 21.0342 25.6885 21.4009 36.1957C21.7527 46.2903 21.2956 59.3639 18.0042 70.0257C14.7029 80.7184 9.11962 87.4922 0 88.362V98.18C9.11962 99.0498 14.7029 105.824 18.0042 116.517C21.2956 127.178 21.7527 140.252 21.4009 150.347C21.0342 160.853 29.225 170.542 40.2961 170.542H153.72C164.79 170.542 172.979 160.854 172.612 150.347C172.261 140.252 172.717 127.178 176.009 116.517C179.312 105.824 184.88 99.0498 194 98.18V88.362C184.88 87.4922 179.312 80.7184 176.009 70.0257C172.717 59.3655 172.261 46.2903 172.612 36.1957C172.979 25.6901 164.79 16 153.72 16H40.2944ZM131.526 111.13C131.526 125.599 120.733 134.373 102.825 134.373H72.339C71.4669 134.373 70.6305 134.026 70.014 133.41C69.3973 132.793 69.0508 131.957 69.0508 131.085V55.4577C69.0508 54.5855 69.3973 53.7492 70.014 53.1326C70.6305 52.5159 71.4669 52.1695 72.339 52.1695H102.651C117.583 52.1695 127.384 60.2583 127.384 72.6776C127.384 81.3942 120.792 89.1986 112.391 90.5647V91.0206C123.826 92.2751 131.526 100.193 131.526 111.13ZM99.501 62.5929H82.1178V87.1455H96.7583C108.076 87.1455 114.317 82.5881 114.317 74.4417C114.317 66.8083 108.95 62.5929 99.501 62.5929ZM82.1178 96.8883V123.946H100.14C111.923 123.946 118.165 119.218 118.165 110.332C118.165 101.444 111.749 96.8867 99.3821 96.8867L82.1178 96.8883Z" fill="#563D7C"/>
</svg>
