<svg width="154" height="154" viewBox="0 0 154 154" fill="none" xmlns="http://www.w3.org/2000/svg">
<path d="M0 0H154V154H0V0Z" fill="#F7DF1E"/>
<path d="M40.4922 128.694L52.2773 121.562C54.5509 125.593 56.6192 129.003 61.5802 129.003C66.3356 129.003 69.3337 127.143 69.3337 119.908V70.7009H83.8058V120.112C83.8058 135.102 75.0195 141.924 62.2006 141.924C50.6234 141.924 43.9032 135.928 40.4919 128.692" fill="black"/>
<path d="M91.6667 127.143L103.45 120.32C106.552 125.386 110.584 129.107 117.716 129.107C123.713 129.107 127.537 126.109 127.537 121.974C127.537 117.012 123.609 115.255 116.993 112.361L113.376 110.809C102.934 106.365 96.0078 100.783 96.0078 88.9981C96.0078 78.1438 104.278 69.8735 117.2 69.8735C126.4 69.8735 133.016 73.0784 137.771 81.4519L126.503 88.6877C124.022 84.243 121.335 82.4859 117.2 82.4859C112.962 82.4859 110.274 85.1736 110.274 88.6877C110.274 93.0295 112.962 94.7873 119.164 97.4752L122.781 99.0257C135.083 104.298 142.009 109.673 142.009 121.767C142.009 134.793 131.775 141.925 118.027 141.925C104.588 141.925 95.9044 135.517 91.6667 127.143Z" fill="black"/>
</svg>
