<svg width="191" height="191" viewBox="0 0 191 191" fill="none" xmlns="http://www.w3.org/2000/svg">
<path fill-rule="evenodd" clip-rule="evenodd" d="M52.4355 40.9754C50.8544 40.9704 49.2793 41.1711 47.75 41.5723V41.7812H47.9768C49.0721 43.4346 50.2934 45.0011 51.6297 46.4667C52.5489 48.2931 53.3487 50.1136 54.2619 51.94C54.3753 51.8266 54.4887 51.7072 54.4887 51.7072C55.3366 51.0342 56.0003 50.1574 56.4177 49.1585C56.8352 48.1597 56.993 47.0714 56.8762 45.9952C56.3764 45.2244 55.9181 44.4274 55.5034 43.6077C54.817 42.4676 53.3308 41.8946 52.4176 40.9814" fill="#5D87A1"/>
<path fill-rule="evenodd" clip-rule="evenodd" d="M165.812 140.582C158.283 140.053 150.728 141.144 143.656 143.781C141.943 144.468 139.209 144.468 138.97 146.634C139.89 147.548 139.997 149.022 140.803 150.293C142.366 152.94 144.375 155.297 146.742 157.259C149.129 159.085 151.517 160.906 154.054 162.505C158.5 165.257 163.532 166.851 167.865 169.59C170.384 171.19 172.891 173.243 175.41 174.962C176.663 175.875 177.457 177.35 179.057 177.946V177.6C178.587 176.332 178.005 175.107 177.32 173.941C176.18 172.807 175.034 171.775 173.888 170.635C170.54 166.208 166.534 162.319 162.01 159.103C158.351 156.584 150.353 153.134 148.879 148.956L148.646 148.723C151.323 148.344 153.962 147.729 156.531 146.885C160.41 145.858 163.95 146.091 167.943 145.094C169.775 144.635 173.088 143.495 173.088 143.495V141.704C171.047 139.675 169.584 136.959 167.435 135.043C161.59 129.94 155.36 125.295 148.801 121.148C145.297 118.886 140.779 117.429 137.049 115.501C135.7 114.821 133.467 114.487 132.65 113.353C130.794 110.631 129.241 107.715 128.018 104.656C124.747 98.4486 121.578 91.5667 118.76 85.0011C117.093 80.601 115.17 76.3021 113 72.1265C102.533 54.3304 87.4248 39.715 69.2913 29.8438C64.7159 27.6292 59.8513 26.0699 54.841 25.2121C52.0118 25.0927 49.1945 24.8719 46.3713 24.7644C44.5488 23.5705 42.8153 22.2459 41.1845 20.8012C34.7263 16.7126 18.1332 7.92659 13.382 19.5597C10.338 26.9072 17.9063 34.1294 20.5027 37.8599C22.692 40.4902 24.621 43.3267 26.2626 46.3295C27.0564 48.2515 27.2832 50.2868 28.0532 52.2983C29.71 57.4619 31.6774 62.5207 33.9444 67.447C35.1569 69.8818 36.5536 72.2204 38.1225 74.4423C39.0357 75.6898 40.6115 76.233 40.9517 78.2922C39.6999 80.9827 38.8243 83.8326 38.3493 86.7618C36.3763 92.9926 35.6502 99.551 36.2124 106.062C36.7747 112.574 38.6143 118.911 41.6262 124.711C43.4168 127.534 47.7262 133.748 53.4861 131.372C58.5655 129.343 57.4374 122.903 58.9057 117.262C59.2399 115.895 59.0191 115 59.6936 114.099V115.197C59.6936 115.197 62.5765 121.53 64.009 124.747C67.9047 130.65 72.7442 135.873 78.334 140.206C80.545 142.136 82.3263 144.509 83.5626 147.172V149.219H86.1113C86.0582 148.296 85.8023 147.396 85.3617 146.583C84.9212 145.77 84.3069 145.064 83.5626 144.515C81.4726 142.364 79.5584 140.049 77.8386 137.592C73.1665 130.938 69.0463 123.913 65.5191 116.588C63.7284 113.006 62.2183 109.079 60.7858 105.504C60.1293 104.125 60.1293 102.042 59.0251 101.326C56.9861 103.738 55.2168 106.366 53.7487 109.163C51.9664 114.815 50.929 120.676 50.6628 126.597C50.2271 126.717 50.442 126.597 50.2271 126.824C46.7115 125.899 45.4999 122.097 44.1748 118.874C40.7518 108.933 40.4065 98.1911 43.184 88.0511C43.948 85.6337 47.2607 78.0176 45.9356 75.7077C45.2731 73.5052 43.0706 72.2458 41.8649 70.5089C40.3257 68.1723 39.0012 65.7011 37.9076 63.1256C35.2873 56.7032 33.9623 49.5407 31.1092 43.0706C29.5299 39.9589 27.691 36.9858 25.612 34.1831C23.3123 31.3834 21.2838 28.3716 19.5537 25.1882C19.0046 23.9169 18.2346 21.8397 19.112 20.455C19.1712 20.0703 19.3542 19.7155 19.6331 19.4441C19.912 19.1727 20.2718 18.9995 20.6579 18.9509C22.0785 17.6855 26.1552 19.2971 27.5817 19.9894C31.4157 21.4988 35.0677 23.4349 38.4687 25.7612C40.0086 26.9192 43.6376 29.8498 43.6376 29.8498H44.712C48.3649 30.6437 52.4714 30.0707 55.9094 31.1032C61.698 33.0329 67.2223 35.6797 72.3533 38.982C87.4762 48.6224 99.7703 62.1029 107.981 78.0475C109.354 80.6677 109.933 83.0732 111.186 85.8068C113.573 91.4175 116.558 97.1475 118.945 102.603C121.052 108 123.776 113.136 127.063 117.907C128.77 120.294 135.628 121.56 138.714 122.813C141.394 123.74 144.023 124.806 146.593 126.006C150.478 128.394 154.352 131.145 158.011 133.766C159.831 135.139 165.543 137.992 165.89 140.278" fill="#00758F"/>
</svg>
