<svg width="171" height="171" viewBox="0 0 171 171" fill="none" xmlns="http://www.w3.org/2000/svg">
<path d="M91.7655 12.2838C87.9725 10.1506 83.0274 10.1602 79.2312 12.2838C60.2182 22.7765 41.2047 33.2724 22.1881 43.7603C18.4877 45.707 15.9919 49.6807 16.0317 53.8052V117.203C16.005 121.408 18.6295 125.42 22.4253 127.34C27.8875 130.246 33.1943 133.447 38.7552 136.16C45.1788 139.316 53.2154 140.014 59.7175 136.723C64.9955 133.995 67.3398 127.927 67.3328 122.351C67.3756 101.428 67.3398 80.5041 67.3494 59.5807C67.475 58.6509 66.7766 57.6569 65.7623 57.6794C63.3325 57.6409 60.8995 57.6569 58.4697 57.673C57.5516 57.5864 56.6555 58.3489 56.725 59.2718C56.6924 80.0601 56.7314 100.855 56.7052 121.646C56.7581 124.522 54.8151 127.286 52.0435 128.257C45.642 130.501 27.3706 118.638 27.3706 118.638C26.7 118.327 26.2742 117.6 26.34 116.877C26.34 95.9609 26.3432 75.0439 26.34 54.1306C26.2478 53.2874 26.7675 52.528 27.5418 52.1838C46.4924 41.7529 65.4331 31.2959 84.3837 20.8586C85.042 20.4193 85.9596 20.4206 86.6163 20.8618C105.567 31.2959 124.511 41.7433 143.465 52.1747C144.242 52.5184 144.739 53.2906 144.66 54.1306C144.657 75.0439 144.667 95.9609 144.654 116.875C144.71 117.615 144.327 118.332 143.636 118.657C124.863 129.031 105.875 139.071 87.2714 149.747C86.4597 150.212 85.5401 150.74 84.6306 150.227C79.7384 147.521 74.9055 144.709 70.0293 141.977C69.4992 141.646 68.8243 141.504 68.2712 141.874C66.0851 143.027 64.0288 143.96 61.5183 144.954C57.9925 146.349 58.5557 146.92 61.7358 148.773C67.4381 152 73.15 155.214 78.8524 158.444C82.6063 160.787 87.6503 160.954 91.5251 158.789C110.541 148.309 129.552 137.817 148.572 127.338C152.357 125.407 154.995 121.411 154.968 117.203V53.8052C155.005 49.7644 152.605 45.8615 149.016 43.886C129.936 33.3422 110.848 22.8212 91.7655 12.2838Z" fill="#8CC84B"/>
<path d="M120.458 59.8832C112.995 55.8904 104.116 55.6777 95.8215 56.1998C89.8296 56.7919 83.5277 58.4452 79.1624 62.7405C74.6849 67.0583 73.7102 74.0308 75.837 79.6674C77.361 83.6506 81.1973 86.2407 85.1645 87.6109C90.2747 89.4149 95.642 89.9728 101.011 90.5307C105.908 91.0394 110.806 91.5487 115.513 93.0038C117.436 93.6408 119.675 94.6155 120.264 96.7075C120.808 99.1849 120.211 102.065 118.2 103.786C111.811 108.843 94.0389 108.068 87.7263 104.088C85.1741 102.392 84.0744 99.3906 83.6271 96.5301C83.5774 95.6388 82.8597 94.8212 81.892 94.8891C79.4686 94.8602 77.0452 94.8666 74.6218 94.8858C73.7764 94.8148 72.8974 95.4165 72.8509 96.2795C72.3529 109.381 84.3854 115.092 95.674 116.35C102.123 116.964 108.714 116.929 115.065 115.545C119.84 114.458 124.626 112.456 127.913 108.779C131.966 104.31 132.762 97.6566 130.945 92.09C129.556 87.9363 125.585 85.2719 121.526 83.9012C116.005 82.0085 109.464 80.991 104.464 80.5149C97.197 79.8229 88.5615 80.1056 86.5047 75.3304C85.6844 72.8301 86.3823 69.7253 88.6801 68.1874C94.7597 64.0636 107.133 64.6114 113.429 67.692C116.32 69.1397 117.995 72.1129 118.687 75.1145C118.815 75.9962 119.408 76.9164 120.429 76.8779C122.836 76.926 125.243 76.8908 127.649 76.894C128.476 76.9517 129.381 76.4852 129.542 75.6387C129.44 69.3652 126.237 62.943 120.458 59.8832Z" fill="#8CC84B"/>
</svg>
