<svg width="213" height="213" viewBox="0 0 213 213" fill="none" xmlns="http://www.w3.org/2000/svg">
<path d="M124.331 106.339C124.331 96.7918 116.348 89.0505 106.5 89.0505C96.6526 89.0505 88.6685 96.7918 88.6685 106.339C88.6685 115.889 96.6526 123.629 106.5 123.629C116.348 123.629 124.331 115.889 124.331 106.339Z" fill="#53C1DE"/>
<path fill-rule="evenodd" clip-rule="evenodd" d="M164.412 74.2418C168.177 59.4056 172.911 31.8933 156.225 22.5657C139.617 13.2789 118.005 31.0742 106.593 41.7558C95.2137 31.1807 72.9944 13.4614 56.3227 22.8185C39.7212 32.1366 44.8408 59.1927 48.6898 74.122C33.2034 78.3867 6.65625 87.5723 6.65625 106.34C6.65625 125.054 33.1758 135.047 48.5705 139.308C44.7072 154.32 39.844 180.989 56.4668 190.287C73.2008 199.642 95.3508 182.345 106.869 171.546C118.354 182.291 139.759 199.701 156.37 190.378C173.033 181.025 168.693 153.882 164.844 138.866C179.767 134.596 206.344 124.82 206.344 106.34C206.344 87.7527 179.654 78.4925 164.412 74.2418ZM162.52 130.908C159.993 123.151 156.582 114.902 152.409 106.381C156.392 98.0605 159.671 89.9179 162.128 82.2107C173.301 85.3518 197.814 92.5305 197.814 106.34C197.814 120.278 174.291 127.525 162.52 130.908ZM152.095 183.22C139.701 190.176 121.291 173.526 112.809 165.613C118.436 159.646 124.059 152.709 129.547 145.006C139.201 144.176 148.321 142.818 156.592 140.964C159.301 151.585 164.544 176.233 152.095 183.22ZM60.7291 183.121C48.3339 176.191 53.9994 152.392 56.8415 141.334C65.0205 143.089 74.0747 144.351 83.7516 145.112C89.2756 152.649 95.0619 159.578 100.893 165.645C93.6887 172.402 73.1821 190.083 60.7291 183.121ZM15.1862 106.34C15.1862 92.3488 39.5519 85.222 50.9805 82.0889C53.4797 89.9692 56.7575 98.209 60.7132 106.541C56.7063 114.997 53.3816 123.368 50.8594 131.341C39.9621 128.317 15.1862 120.339 15.1862 106.34ZM60.5965 29.9767C73.0424 22.9917 92.3535 40.0029 100.615 47.6596C94.8143 53.6996 89.0813 60.5759 83.6045 68.0701C74.2132 68.9141 65.2229 70.2694 56.9581 72.0852C53.8574 60.0441 48.1641 36.9541 60.5965 29.9767ZM135.65 77.0601C142.021 77.8395 148.126 78.8766 153.857 80.1452C152.137 85.4929 149.992 91.0848 147.466 96.8171C143.804 90.081 139.874 83.48 135.65 77.0601ZM106.595 53.5702C110.53 57.7028 114.47 62.3178 118.347 67.3246C110.484 66.9639 102.608 66.9625 94.7451 67.3193C98.625 62.3589 102.599 57.7508 106.595 53.5702ZM65.6073 96.8112C63.1231 91.0988 60.9977 85.4822 59.2621 80.058C64.9595 78.822 71.0355 77.8116 77.3656 77.0448C73.1296 83.4507 69.2057 90.0491 65.6073 96.8112ZM77.5473 136.225C71.0082 135.517 64.8403 134.558 59.1445 133.356C60.9076 127.837 63.0798 122.099 65.617 116.263C69.2649 123.096 73.2487 129.758 77.5473 136.225ZM106.831 159.693C102.788 155.463 98.7554 150.785 94.8169 145.753C102.725 146.053 110.648 146.054 118.554 145.712C114.666 150.836 110.739 155.521 106.831 159.693ZM147.547 115.967C150.216 121.865 152.466 127.572 154.253 132.998C148.463 134.279 142.212 135.311 135.626 136.077C139.881 129.535 143.874 122.832 147.547 115.967ZM124.787 137.079C112.691 137.917 100.52 137.908 88.4203 137.148C81.5451 127.411 75.4246 117.17 70.1416 106.539C75.3993 95.9292 81.4752 85.7085 88.3178 75.9864C100.426 75.0991 112.609 75.0965 124.717 75.9917C131.502 85.7132 137.568 95.9072 142.948 106.421C137.632 117.025 131.524 127.266 124.787 137.079ZM151.964 29.7308C164.413 36.6928 158.872 61.4189 156.152 72.171C147.868 70.3173 138.871 68.9381 129.453 68.0808C123.965 60.5056 118.28 53.6173 112.573 47.6553C120.941 39.8337 139.635 22.8369 151.964 29.7308Z" fill="#53C1DE"/>
</svg>
