<svg width="188" height="188" viewBox="0 0 188 188" fill="none" xmlns="http://www.w3.org/2000/svg">
<path d="M44.65 81.0221C46.4616 80.7943 48.3003 80.9278 50.0599 81.4148C51.8196 81.9019 53.4653 82.7328 54.9019 83.8597C55.8288 85.2875 56.4199 86.907 56.6305 88.5962C56.8412 90.2854 56.6659 92.0005 56.118 93.6122C55.6373 97.5799 53.7185 101.234 50.7248 103.882C47.1145 106.207 42.8468 107.298 38.5635 106.99H30.3385L35.391 81.0749L44.65 81.0221ZM11.75 133.227H25.2625L28.4644 116.777H40.0205C44.2779 116.886 48.5265 116.337 52.6165 115.15C55.9756 114.041 59.046 112.199 61.6053 109.757C66.0315 105.777 69.0147 100.442 70.0888 94.5874C70.9366 91.6733 71.0858 88.6005 70.5244 85.6179C69.963 82.6354 68.7068 79.8271 66.8575 77.4207C64.628 75.2112 61.9431 73.5151 58.9902 72.4506C56.0373 71.3862 52.8877 70.9791 49.7613 71.2578H23.8349L11.75 133.227Z" fill="#8993BE"/>
<path d="M79.9999 54.7727H93.4125L90.1637 71.2227H102.096C107.578 70.6487 113.085 72.0417 117.635 75.1531C119.141 76.8644 120.17 78.9414 120.619 81.1759C121.069 83.4104 120.923 85.7238 120.197 87.8842L114.592 116.725H101.021L106.355 89.306C106.726 88.2598 106.859 87.1439 106.743 86.04C106.627 84.936 106.266 83.872 105.685 82.9257C103.741 81.5304 101.337 80.9294 98.9644 81.2455H88.2543L81.3512 116.754H67.9092L79.9999 54.7727Z" fill="#8993BE"/>
<path d="M150.042 81.022C151.853 80.7942 153.692 80.9277 155.452 81.4148C157.211 81.9018 158.857 82.7328 160.293 83.8596C161.22 85.2875 161.811 86.9069 162.022 88.5962C162.233 90.2854 162.058 92.0004 161.51 93.6121C161.029 97.5799 159.11 101.234 156.116 103.882C152.5 106.212 148.223 107.303 143.932 106.99H135.712L140.753 81.0455L150.042 81.022ZM117.142 133.227H130.654L133.856 116.777H145.418C149.683 116.888 153.94 116.339 158.037 115.15C161.397 114.041 164.467 112.199 167.026 109.757C171.442 105.772 174.414 100.438 175.48 94.5874C176.328 91.6733 176.477 88.6004 175.916 85.6179C175.355 82.6354 174.098 79.8271 172.249 77.4206C170.019 75.2151 167.334 73.5227 164.382 72.4613C161.431 71.4 158.283 70.9953 155.159 71.2754H129.191L117.142 133.227Z" fill="#8993BE"/>
</svg>
